<svg width="1019" height="959" viewBox="0 0 1019 959" fill="none" xmlns="http://www.w3.org/2000/svg">
<path d="M336.242 689C388.34 689 438.909 640.333 457.742 614L429.242 566C428.909 564 419.442 562.4 384.242 572C340.242 584 350.742 621.5 308.242 637C265.742 652.5 246.242 629.5 246.742 614C247.242 598.5 289.742 600 255.742 581.5C221.742 563 199.98 633.913 238.242 662.5C281.743 695 298.242 689 336.242 689Z" fill="#2869BF"/>
<path d="M674.742 722.5C638.342 718.9 616.576 660.333 610.242 631.5L594.242 554C595.909 551 609.142 546.1 648.742 550.5C688.342 554.9 696.576 591.667 695.742 609.5L737.742 692.5C731.909 704 711.142 726.1 674.742 722.5Z" fill="#4F92E8"/>
<path d="M400.742 300.5C315.542 387.3 365.242 513.334 400.742 565.5C457.542 665.1 587.075 612.334 644.742 573.5C638.076 570.834 630.642 561.5 654.242 545.5C677.842 529.5 702.076 476.834 711.242 452.5C716.242 470.5 742.742 478 757.242 441C771.742 404 769.69 372.07 740.242 337.5C694.242 283.5 507.242 192 400.742 300.5Z" fill="url(#paint0_linear_44_81)"/>
<path d="M614.742 642.5C587.142 629.3 585.576 646.333 588.242 656.5L571.242 634L567.742 606C569.576 607.5 575.742 611.4 585.742 615C595.742 618.6 609.242 634.833 614.742 642.5Z" fill="#FFC2BA"/>
<path d="M600.242 674.5C582.242 652.9 571.075 622.167 567.742 609.5L470.742 606L452.242 643C466.742 662.5 496.442 702.8 499.242 708C502.042 713.2 536.742 733.833 553.742 743.5C561.742 753.5 573.442 776.2 556.242 787C539.042 797.8 538.409 778.167 540.242 767C539.242 758.333 533.842 745.8 520.242 765C503.242 789 515.242 822.5 560.742 823.5C606.242 824.5 619.242 776.5 623.242 761.5C627.242 746.5 622.742 701.5 600.242 674.5Z" fill="#2869BF"/>
<path d="M361.242 780.5C382.842 766.1 373.575 754.5 366.242 750.5C355.742 752 366.242 761 351.742 764C340.142 766.4 337.909 755 338.242 749C340.909 741.167 351.442 724.3 372.242 719.5C393.042 714.7 405.576 701.833 409.242 696C405.642 681.2 411.742 662.5 415.242 655C394.442 679.4 355.242 687.833 338.242 689L325.742 696C295.342 715.6 299.409 746.167 305.242 759C314.909 772.167 339.642 794.9 361.242 780.5Z" fill="#2869BF"/>
<path d="M416.742 709.5C386.742 679.1 431.242 632.667 456.242 614L476.242 620C472.909 637.167 468.942 669.6 479.742 658C490.542 646.4 511.576 639.833 520.742 638C531.076 636 556.542 636.6 575.742 655C599.742 678 566.242 702 569.742 688.5C573.242 675 565.242 668.5 544.742 672.5C524.242 676.5 505.242 718 496.242 723C487.242 728 454.242 747.5 416.742 709.5Z" fill="#0F50A5"/>
<path fill-rule="evenodd" clip-rule="evenodd" d="M366.243 750.5C373.576 754.5 382.843 766.1 361.243 780.5C345.018 791.317 327.025 781.181 314.977 769.887C298.633 734.245 323.031 706.238 359.471 685.506C377.967 680.995 400.949 671.767 415.243 655C411.743 662.5 405.643 681.2 409.243 696C405.576 701.833 393.043 714.7 372.243 719.5C351.443 724.3 340.909 741.167 338.243 749C337.909 755 340.143 766.4 351.743 764C359.557 762.383 360.11 759.024 360.603 756.035C361.024 753.478 361.401 751.192 366.243 750.5Z" fill="#FFC2BA"/>
<path fill-rule="evenodd" clip-rule="evenodd" d="M439.987 512C443.509 508.438 446.279 503.128 447.467 496.907C449.849 484.43 444.964 473.014 436.556 471.408C428.147 469.803 419.4 478.616 417.017 491.093C415.433 499.388 417.061 507.214 420.801 512H439.987Z" fill="#520001"/>
<path fill-rule="evenodd" clip-rule="evenodd" d="M578.593 519.781C582.034 515.012 583.564 507.577 582.2 499.666C580.041 487.148 571.453 478.179 563.017 479.634C554.581 481.089 549.492 492.416 551.651 504.934C552.69 510.961 555.221 516.166 558.507 519.781H578.593Z" fill="#520001"/>
<path fill-rule="evenodd" clip-rule="evenodd" d="M578.467 519.781C579.28 518.36 579.742 516.732 579.742 515C579.742 509.477 575.041 505 569.242 505C563.443 505 558.742 509.477 558.742 515C558.742 516.732 559.205 518.36 560.018 519.781H578.467Z" fill="#7C0002"/>
<ellipse cx="435.742" cy="479" rx="4" ry="6" fill="white"/>
<path fill-rule="evenodd" clip-rule="evenodd" d="M440.532 512C440.67 511.354 440.742 510.685 440.742 510C440.742 504.477 436.041 500 430.242 500C424.443 500 419.742 504.477 419.742 510C419.742 510.685 419.814 511.354 419.952 512H440.532Z" fill="#7C0002"/>
<ellipse cx="563.742" cy="486" rx="4" ry="6" fill="white"/>
<ellipse cx="569.742" cy="548.5" rx="15" ry="13.5" fill="white" fill-opacity="0.1"/>
<ellipse cx="425.742" cy="539.5" rx="15" ry="13.5" fill="white" fill-opacity="0.1"/>
<path d="M622.242 646.5C602.242 628.1 577.576 615.167 567.742 611L561.742 603L637.242 572C639.409 572.667 649.242 575.7 671.242 582.5C698.742 591 701.242 624.5 732.242 640.5C757.042 653.3 769.909 636.833 773.242 627C773.742 619.333 771.842 604.7 760.242 607.5C748.642 610.3 752.076 603 755.242 599C775.742 579.5 798.742 597.5 802.242 627C805.742 656.5 781.742 681 740.242 693.5C698.742 706 647.242 669.5 622.242 646.5Z" fill="#2B6CC1"/>
<path d="M463.036 236.724C417.917 233.675 410.194 273.56 411.973 293.884C447.793 311.413 548.547 335.954 665.002 293.884C671.708 248.765 631.214 236.978 610.128 236.724C586.349 196.483 550.935 215.384 536.201 229.865C510.593 192.672 476.754 218.941 463.036 236.724Z" fill="#F54F89"/>
<path d="M472.615 254.737C433.355 252.241 426.635 284.898 428.182 301.539C459.351 315.892 547.023 335.985 648.356 301.539C654.192 264.597 618.955 254.945 600.607 254.737C579.916 221.789 549.101 237.265 536.28 249.121C513.997 218.669 484.552 240.177 472.615 254.737Z" fill="#FFAEC7"/>
<path d="M406.742 288C444.409 313.667 550.542 349.6 673.742 288" stroke="white" stroke-width="18" stroke-linecap="round"/>
<ellipse cx="494.742" cy="523.5" rx="10" ry="11.5" fill="black"/>
<defs>
<linearGradient id="paint0_linear_44_81" x1="558.881" y1="252.922" x2="514.242" y2="773" gradientUnits="userSpaceOnUse">
<stop stop-color="#85BAFF"/>
<stop offset="1" stop-color="#0047A4"/>
</linearGradient>
</defs>
</svg>
